<svg width="645" height="645" viewBox="0 0 645 645" xmlns="http://www.w3.org/2000/svg">
<mask id="path-1-inside-1_29_463" fill="white">
<path d="M322.5 0C236.968 -1.01996e-06 154.939 33.9776 94.4581 94.4581C33.9776 154.939 7.47747e-06 236.968 0 322.5C-7.47747e-06 408.032 33.9776 490.061 94.458 550.542C154.939 611.022 236.968 645 322.5 645L322.5 322.5V0Z"/>
</mask>
<path d="M322.5 0C236.968 -1.01996e-06 154.939 33.9776 94.4581 94.4581C33.9776 154.939 7.47747e-06 236.968 0 322.5C-7.47747e-06 408.032 33.9776 490.061 94.458 550.542C154.939 611.022 236.968 645 322.5 645L322.5 322.5V0Z" stroke="#FFFAFA" stroke-width="6"/>
<circle cx="106" cy="84" r="15" fill="#FFFAFA"/>
</svg>
