<svg width="31" height="20" viewBox="0 0 31 20" fill="none" xmlns="http://www.w3.org/2000/svg">
<path d="M29.062 18.4821H25.1868C24.5907 18.4835 24.0273 18.2041 23.6607 17.7253L19.8825 12.8157C19.7129 12.595 19.4248 12.5078 19.1644 12.5988C18.9043 12.6897 18.729 12.9383 18.7281 13.2185V15.1923C18.7281 17.01 16.9922 18.4821 14.8529 18.4821C14.0165 18.4898 13.1956 18.253 12.4874 17.7995C7.06206 14.263 3.38058 9.79743 0.183748 2.87282C-0.0979507 2.26179 -0.0534843 1.54644 0.301536 0.97638C0.656556 0.406316 1.27293 0.0608084 1.93567 0.0600856H5.81085C6.58617 0.0581581 7.28793 0.527268 7.59494 1.2525L8.03085 2.28878C8.68957 3.84549 9.57392 5.29282 10.6548 6.58184C10.6901 6.62039 10.7402 6.6416 10.792 6.63943C10.8396 6.64401 10.8871 6.62786 10.9223 6.59485C10.9578 6.56209 10.9779 6.51534 10.9777 6.46667V3.89247C10.0912 3.56986 9.56091 2.64489 9.72009 1.69992C9.87927 0.754956 10.6823 0.0632178 11.6236 0.0600856H16.7905C17.8605 0.0600856 18.7281 0.943853 18.7281 2.03386V6.63943C18.7285 6.93313 18.9201 7.19094 19.1975 7.27117C19.475 7.35141 19.7709 7.23455 19.923 6.9847L23.5316 1.00577C23.8814 0.415713 24.5101 0.0564716 25.1868 0.0600856H29.062C29.7779 0.0603266 30.4352 0.462937 30.7715 1.10673C31.1079 1.75052 31.0681 2.53092 30.6684 3.13592L26.5995 8.88451C26.4351 9.11509 26.4351 9.4271 26.5995 9.65768L30.6362 15.3569C31.0601 15.9583 31.118 16.7507 30.7862 17.4094C30.4544 18.0682 29.7886 18.4821 29.062 18.4821ZM19.374 11.2448C19.97 11.2435 20.5332 11.5228 20.8998 12.0015L24.678 16.9112C24.8001 17.0714 24.9876 17.1656 25.1868 17.1661H29.062C29.3051 17.1671 29.5281 17.0285 29.6388 16.8081C29.7498 16.5874 29.7294 16.3223 29.5866 16.1216L25.5501 10.4224C25.0609 9.73261 25.0609 8.80138 25.5501 8.11157L29.6109 2.37937C29.6748 2.27577 29.7084 2.15602 29.7077 2.03386C29.7077 1.67053 29.4186 1.37586 29.062 1.37586H25.1868C24.9628 1.3761 24.7551 1.4944 24.6378 1.68836L21.0289 7.66728C20.5772 8.42335 19.6864 8.78066 18.8499 8.54117C18.0133 8.30191 17.4357 7.5244 17.4364 6.63943V2.03386C17.4364 1.67053 17.1471 1.37586 16.7905 1.37586H11.6236C11.2667 1.37586 10.9777 1.67053 10.9777 2.03386C10.9777 2.3972 11.2667 2.69187 11.6236 2.69187H12.2693V6.46667C12.262 7.09095 11.8772 7.64583 11.3017 7.86148C10.7265 8.07688 10.0803 7.90798 9.67776 7.43718C8.5143 6.04913 7.56159 4.49121 6.85226 2.81523L6.40807 1.77895C6.30708 1.53416 6.0715 1.37514 5.81085 1.37586H1.93567C1.71523 1.37706 1.51064 1.49271 1.39285 1.68257C1.27506 1.87243 1.26063 2.11024 1.3543 2.3136C4.47876 9.08184 7.90975 13.2515 13.1896 16.6975C13.6899 17.0095 14.2663 17.1721 14.8529 17.1661C16.2737 17.1661 17.4364 16.278 17.4364 15.1923V13.2185C17.4364 12.1285 18.3037 11.2448 19.374 11.2448Z" fill="black"/>
</svg>
