<svg width="40" height="40" viewBox="0 0 40 40" fill="none" xmlns="http://www.w3.org/2000/svg">
<path d="M20 26.6668C23.6819 26.6668 26.6667 23.6821 26.6667 20.0002C26.6667 16.3183 23.6819 13.3335 20 13.3335C16.3181 13.3335 13.3334 16.3183 13.3334 20.0002C13.3334 23.6821 16.3181 26.6668 20 26.6668Z" stroke="black" stroke-width="2" stroke-linecap="round" stroke-linejoin="round"/>
<path d="M26.6667 13.3334V21.6668C26.6667 22.9929 27.1935 24.2646 28.1312 25.2023C29.0689 26.14 30.3406 26.6668 31.6667 26.6668C32.9928 26.6668 34.2646 26.14 35.2023 25.2023C36.1399 24.2646 36.6667 22.9929 36.6667 21.6668V20.0001C36.6665 16.2385 35.3938 12.5876 33.0555 9.64099C30.7173 6.69441 27.451 4.62548 23.7878 3.7706C20.1246 2.91572 16.2799 3.32517 12.879 4.93238C9.47799 6.53959 6.72072 9.25003 5.05549 12.623C3.39025 15.9959 2.915 19.833 3.707 23.5103C4.49901 27.1876 6.51168 30.4888 9.41777 32.8772C12.3239 35.2656 15.9524 36.6007 19.7135 36.6654C23.4746 36.73 27.1469 35.5205 30.1334 33.2334" stroke="black" stroke-width="2" stroke-linecap="round" stroke-linejoin="round"/>
</svg>
