<?xml version="1.0" encoding="utf-8"?><svg viewBox="0 0 645 645" xmlns="http://www.w3.org/2000/svg" xmlns:xlink="http://www.w3.org/1999/xlink"><style>:root>svg{display:none}:root>svg:target{display:block}</style><svg fill="none" viewBox="0 0 40 40" id="adress" xmlns="http://www.w3.org/2000/svg"><path d="M35 16.666c0 11.667-15 21.667-15 21.667s-15-10-15-21.666a15 15 0 0130 0z" stroke="#000" stroke-width="2" stroke-linecap="round" stroke-linejoin="round"/><path d="M20 21.666a5 5 0 100-10 5 5 0 000 10z" stroke="#000" stroke-width="2" stroke-linecap="round" stroke-linejoin="round"/></svg><svg viewBox="0 0 43 44" id="burger" xmlns="http://www.w3.org/2000/svg"><path d="M30.458 18.333H5.375M37.625 11H5.375m32.25 14.667H5.375M30.458 33H5.375" stroke="#000" stroke-width="2" stroke-linecap="round" stroke-linejoin="round"/></svg><svg fill="none" viewBox="0 0 31 31" id="close" xmlns="http://www.w3.org/2000/svg"><path d="M23.25 7.75l-15.5 15.5m0-15.5l15.5 15.5" stroke="#000" stroke-width="2" stroke-linecap="round" stroke-linejoin="round"/></svg><svg viewBox="0 0 645 645" id="hero__big-image-decor" xmlns="http://www.w3.org/2000/svg"><path d="M322.5 0a322.501 322.501 0 000 645V0z" stroke="snow" stroke-width="6"/><circle cx="106" cy="84" r="15" fill="snow"/></svg><svg viewBox="0 0 502.664 502.664" id="icon" xmlns="http://www.w3.org/2000/svg"><path d="M153.821 358.226L0 274.337v-46.463l153.821-83.414v54.574L46.636 250.523l107.185 53.431v54.272zm26.273 29.358L282.103 115.08h32.227L212.084 387.584h-31.99zm168.749-29.358v-54.272l107.164-52.999-107.164-52.59v-53.927l153.821 83.522v46.183l-153.821 84.083z" fill="#010002"/></svg><svg fill="none" viewBox="0 0 40 40" id="phone" xmlns="http://www.w3.org/2000/svg"><path d="M25.083 8.333l6.584 6.583m-6.584-13.25A15 15 0 0138.333 14.9m-1.666 13.3v5a3.333 3.333 0 01-3.634 3.333 32.984 32.984 0 01-14.383-5.117 32.5 32.5 0 01-10-10 32.983 32.983 0 01-5.117-14.45A3.333 3.333 0 016.85 3.333h5A3.333 3.333 0 0115.183 6.2a21.41 21.41 0 001.167 4.683 3.334 3.334 0 01-.75 3.517l-2.117 2.117a26.666 26.666 0 0010 10L25.6 24.4a3.333 3.333 0 013.517-.75 21.41 21.41 0 004.683 1.167 3.333 3.333 0 012.867 3.383z" stroke="#000" stroke-width="2" stroke-linecap="round" stroke-linejoin="round"/></svg><svg viewBox="0 0 25 43" id="slider-next" xmlns="http://www.w3.org/2000/svg"><path d="M3.375 39.75l18.25-18.25L3.375 3.25" stroke="snow" stroke-width="5" stroke-linecap="round" stroke-linejoin="round"/></svg><svg viewBox="0 0 25 43" id="slider-prev" xmlns="http://www.w3.org/2000/svg"><path d="M21.625 39.75L3.375 21.5l18.25-18.25" stroke="snow" stroke-width="5" stroke-linecap="round" stroke-linejoin="round"/></svg><svg fill="none" viewBox="0 0 21 21" id="small-star" xmlns="http://www.w3.org/2000/svg"><path d="M10.5 0l1.206 7.59 6.219-4.515-4.515 6.22L21 10.5l-7.59 1.206 4.515 6.219-6.22-4.515L10.5 21l-1.205-7.59-6.22 4.515 4.515-6.22L0 10.5l7.59-1.205-4.515-6.22 6.22 4.515L10.5 0z" fill="#000"/></svg><svg fill="none" viewBox="0 0 40 40" id="social" xmlns="http://www.w3.org/2000/svg"><path d="M20 26.667a6.667 6.667 0 100-13.333 6.667 6.667 0 000 13.333z" stroke="#000" stroke-width="2" stroke-linecap="round" stroke-linejoin="round"/><path d="M26.667 13.333v8.334a5 5 0 0010 0V20a16.666 16.666 0 10-6.534 13.233" stroke="#000" stroke-width="2" stroke-linecap="round" stroke-linejoin="round"/></svg><svg fill="none" viewBox="0 0 25 25" id="social-insta" xmlns="http://www.w3.org/2000/svg"><path d="M17.708 2.083H7.292a5.208 5.208 0 00-5.209 5.209v10.416a5.208 5.208 0 005.209 5.209h10.416a5.208 5.208 0 005.209-5.209V7.293a5.208 5.208 0 00-5.209-5.208z" stroke="#000" stroke-width="1.5" stroke-linecap="round" stroke-linejoin="round"/><path d="M16.667 11.844a4.167 4.167 0 11-8.243 1.222 4.167 4.167 0 018.243-1.222zm1.563-5.073h.01" stroke="#000" stroke-width="1.5" stroke-linecap="round" stroke-linejoin="round"/></svg><svg fill="none" viewBox="0 0 31 20" id="social-vk" xmlns="http://www.w3.org/2000/svg"><path d="M29.062 18.482h-3.875a1.917 1.917 0 01-1.526-.757l-3.779-4.91a.639.639 0 00-.718-.216.657.657 0 00-.436.62v1.973c0 1.818-1.736 3.29-3.875 3.29a4.31 4.31 0 01-2.366-.683C7.062 14.263 3.381 9.797.184 2.873A2.006 2.006 0 01.302.976 1.93 1.93 0 011.936.06H5.81a1.937 1.937 0 011.784 1.193l.436 1.036a16.977 16.977 0 002.624 4.293c.035.038.085.06.137.057a.167.167 0 00.13-.044.174.174 0 00.056-.128V3.892A1.978 1.978 0 019.72 1.7 1.948 1.948 0 0111.624.06h5.167c1.07 0 1.937.884 1.937 1.974v4.605c0 .294.192.552.47.632a.64.64 0 00.725-.286l3.609-5.98c.35-.59.978-.949 1.655-.945h3.875c.716 0 1.373.403 1.71 1.047a2.005 2.005 0 01-.104 2.029L26.6 8.885a.668.668 0 000 .773l4.037 5.699c.424.601.482 1.394.15 2.052a1.934 1.934 0 01-1.724 1.073zm-9.688-7.237a1.917 1.917 0 011.526.757l3.778 4.91a.64.64 0 00.509.254h3.875a.644.644 0 00.577-.358.668.668 0 00-.052-.686l-4.037-5.7a2.003 2.003 0 010-2.31l4.06-5.733a.651.651 0 00.098-.345.652.652 0 00-.646-.658h-3.875a.643.643 0 00-.55.312l-3.608 5.98a1.922 1.922 0 01-2.18.873 1.968 1.968 0 01-1.413-1.902V2.034a.652.652 0 00-.645-.658h-5.167a.652.652 0 00-.646.658c0 .363.289.658.646.658h.645v3.775a1.504 1.504 0 01-.967 1.394 1.46 1.46 0 01-1.624-.424 18.295 18.295 0 01-2.826-4.622L6.408 1.78a.646.646 0 00-.597-.403H1.936a.644.644 0 00-.543.307.668.668 0 00-.039.63C4.48 9.083 7.91 13.252 13.19 16.699c.5.311 1.076.474 1.663.468 1.42 0 2.583-.888 2.583-1.974V13.22c0-1.09.868-1.974 1.938-1.974z" fill="#000"/></svg><svg viewBox="0 0 70 68" id="star" xmlns="http://www.w3.org/2000/svg"><path d="M35 0l4.018 24.576 20.73-14.618-15.047 20.139L70 34l-25.3 3.903 15.05 20.139-20.73-14.618L35 68l-4.018-24.576-20.73 14.618 15.047-20.139L0 34l25.3-3.903L10.25 9.958l20.73 14.618L35 0z" fill="#CB8785"/></svg><svg fill="none" viewBox="0 0 40 40" id="time" xmlns="http://www.w3.org/2000/svg"><path d="M20 36.667c9.205 0 16.667-7.462 16.667-16.667 0-9.205-7.462-16.666-16.667-16.666-9.205 0-16.667 7.461-16.667 16.666S10.795 36.667 20 36.667z" stroke="#000" stroke-width="2" stroke-linecap="round" stroke-linejoin="round"/><path d="M20 10v10l6.667 3.333" stroke="#000" stroke-width="2" stroke-linecap="round" stroke-linejoin="round"/></svg><svg fill="none" viewBox="0 0 51 83" id="up" xmlns="http://www.w3.org/2000/svg"><circle cx="25.5" cy="57.5" r="25" stroke="#787878"/><path d="M25.5 65.734V17.391m-8.925 24.172L25.5 17.39l8.925 24.172" stroke="#CB8785" stroke-width="2" stroke-linecap="round" stroke-linejoin="round"/></svg></svg>